<svg viewBox="0 0 19.5652 19.8621" xmlns="http://www.w3.org/2000/svg" xmlns:xlink="http://www.w3.org/1999/xlink" width="19.565186" height="19.862061" fill="none">
	<rect id="Icon / Auto Loan" width="19.565216" height="19.862068" x="0.000000" y="0.000000" />
	<g id="Icon">
		<path id="Vector" d="M15.6264 1.24146C16.4159 1.24146 17.1177 1.7544 17.3668 2.51497L19.5336 9.11414L19.5472 9.16095C19.5512 9.17737 19.5545 9.19405 19.5572 9.21096L19.5336 9.11414C19.551 9.16711 19.561 9.22078 19.5641 9.27398C19.5646 9.28512 19.565 9.29772 19.565 9.31042L19.565 18.0001C19.565 18.3429 19.2913 18.6208 18.9536 18.6208L14.0624 18.6208C13.7247 18.6208 13.451 18.3429 13.451 18.0001L13.4498 16.138L6.11409 16.138L6.11415 18.0001C6.11415 18.3429 5.84042 18.6208 5.50275 18.6208L0.611535 18.6208C0.273856 18.6208 0.00012207 18.3429 0.00012207 18.0001L0.00012207 9.31042L0.00102444 9.27398C0.00223146 9.25336 0.00446792 9.23267 0.0077672 9.21198L0.00012207 9.31042C0.00012207 9.25889 0.00630796 9.20882 0.0179671 9.16095C0.0216597 9.14623 0.0262391 9.13016 0.0314972 9.11414L2.19817 2.5154C2.44754 1.75407 3.14835 1.24146 3.93878 1.24146L15.6264 1.24146ZM4.89126 16.138L1.22278 16.138L1.22293 17.3794L4.89134 17.3794L4.89126 16.138ZM18.3411 16.138L14.6726 16.138L14.6738 17.3794L18.3422 17.3794L18.3411 16.138ZM18.3422 9.93111L1.22293 9.93111L1.22293 14.8966L18.3422 14.8966L18.3422 9.93111ZM3.66854 11.1725C4.34387 11.1725 4.89134 11.7283 4.89134 12.4139C4.89134 13.0995 4.34387 13.6552 3.66854 13.6552C2.9932 13.6552 2.44573 13.0995 2.44573 12.4139C2.44573 11.7283 2.9932 11.1725 3.66854 11.1725ZM15.8966 11.1725C16.5719 11.1725 17.1194 11.7283 17.1194 12.4139C17.1194 13.0995 16.5719 13.6552 15.8966 13.6552C15.2213 13.6552 14.6738 13.0995 14.6738 12.4139C14.6738 11.7283 15.2213 11.1725 15.8966 11.1725ZM15.6264 2.48283L3.93878 2.48283C3.67475 2.48283 3.44161 2.65336 3.35836 2.90753L1.45879 8.68973L18.1051 8.68973L16.2066 2.9071C16.1237 2.65387 15.8897 2.48283 15.6264 2.48283Z" fill="rgb(255,255,255)" fill-rule="evenodd" />
	</g>
</svg>
