<svg viewBox="0 0 20 20" xmlns="http://www.w3.org/2000/svg" xmlns:xlink="http://www.w3.org/1999/xlink" width="20.000000" height="20.000000" fill="none">
	<rect id="landing-page_major" width="20.000000" height="20.000000" x="0.000000" y="0.000000" fill="rgb(255,255,255)" fill-opacity="0" />
	<path id="Primary fill" d="M20 5.20733C20 4.8095 19.842 4.42797 19.5607 4.14667L15.8533 0.43934C15.572 0.158035 15.1905 0 14.7927 0L5.5 6.62482e-06C4.67157 6.62482e-06 4 0.67158 4 1.50001L4 2.00001L14.586 2.00001L18 5.41401L18 18L6 18L6 8.00001L4 8.00001L4 18.5C4 19.3284 4.67157 20 5.5 20L18.5 20C19.3284 20 20 19.3284 20 18.5L20 5.20733ZM11 7.00001C11 6.44801 10.551 6.00001 10 6.00001L1 6.00001C0.734784 6.00001 0.48043 5.89465 0.292893 5.70711C0.105357 5.51958 0 5.26522 0 5.00001C0 4.73479 0.105357 4.48044 0.292893 4.2929C0.48043 4.10536 0.734784 4.00001 1 4.00001L10 4.00001C11.654 4.00001 13 5.34601 13 7.00001L13 12.586L14.293 11.293C14.4805 11.1055 14.7348 11.0002 15 11.0002C15.2652 11.0002 15.5195 11.1055 15.707 11.293C15.8945 11.4805 15.9998 11.7348 15.9998 12C15.9998 12.2652 15.8945 12.5195 15.707 12.707L12.707 15.707C12.6143 15.8002 12.5042 15.8741 12.3829 15.9246C12.2615 15.9751 12.1314 16.001 12 16.001C11.8686 16.001 11.7385 15.9751 11.6171 15.9246C11.4958 15.8741 11.3857 15.8002 11.293 15.707L8.293 12.707C8.10549 12.5195 8.00015 12.2652 8.00015 12C8.00015 11.7348 8.10549 11.4805 8.293 11.293C8.48051 11.1055 8.73482 11.0002 9 11.0002C9.26518 11.0002 9.51949 11.1055 9.707 11.293L11 12.586L11 7.00001Z" fill="rgb(132,137,143)" fill-rule="evenodd" />
</svg>
