<svg viewBox="0 0 24 23.2727" xmlns="http://www.w3.org/2000/svg" xmlns:xlink="http://www.w3.org/1999/xlink" width="24.000000" height="23.272705" fill="none">
	<rect id="home-line" width="24.000000" height="23.272728" x="0.000000" y="0.000000" fill="rgb(255,255,255)" fill-opacity="0" />
	<path id="矢量 32" d="M21 19.3939C21 19.6511 20.8946 19.8978 20.7071 20.0796C20.5196 20.2614 20.2652 20.3636 20 20.3636L4 20.3636C3.73478 20.3636 3.48043 20.2614 3.29289 20.0796C3.10536 19.8978 3 19.6511 3 19.3939L3 9.20243C2.99989 9.05466 3.03462 8.90882 3.10152 8.77605C3.16841 8.64328 3.26572 8.5271 3.386 8.43637L11.386 2.40291C11.5615 2.2705 11.7776 2.19861 12 2.19861C12.2224 2.19861 12.4385 2.2705 12.614 2.40291L20.614 8.43637C20.7343 8.5271 20.8316 8.64328 20.8985 8.77605C20.9654 8.90882 21.0001 9.05466 21 9.20243L21 19.3939L21 19.3939ZM19 18.4242L19 9.67564L12 4.39661L5 9.67564L5 18.4242L19 18.4242Z" fill="rgb(132,137,143)" fill-rule="evenodd" />
</svg>
