<svg viewBox="0 0 19 19" xmlns="http://www.w3.org/2000/svg" xmlns:xlink="http://www.w3.org/1999/xlink" width="19.000000" height="19.000000" fill="none" customFrame="#000000">
	<rect id="2 Elements/Icons/Setting/Line/White" width="19.000000" height="19.000000" x="0.000000" y="0.000000" fill="rgb(132,137,143)" fill-opacity="0" />
	<path id="Stroke 1" d="M18.2083 9.05028C18.2083 8.66938 17.9637 8.33014 17.6025 8.20898L16.3886 7.80536C16.0024 7.67587 15.6927 7.38433 15.5367 7.00798C15.5352 7.0042 15.5337 7.00041 15.5322 6.99662C15.3747 6.61952 15.3868 6.19319 15.57 5.82744L16.1418 4.68324C16.3121 4.34248 16.2455 3.92978 15.9752 3.6602L15.3391 3.02411C15.0695 2.75453 14.6576 2.68714 14.316 2.85827L13.1726 3.43075C12.8069 3.61325 12.3805 3.62461 12.0034 3.46786C11.9996 3.46558 11.9951 3.46483 11.9921 3.46331C11.6149 3.30732 11.3234 2.99761 11.1947 2.61141L10.7903 1.39755C10.6699 1.03634 10.3314 0.791748 9.94976 0.791748L9.05015 0.791748C8.6685 0.791748 8.33001 1.03634 8.20885 1.39755L7.80448 2.61141C7.67575 2.99761 7.38497 3.30732 7.00786 3.46331C7.00408 3.46483 7.00029 3.46558 6.9965 3.46786C6.61864 3.62461 6.19306 3.61325 5.82731 3.43075L4.68312 2.85827C4.3416 2.68714 3.92965 2.75453 3.66008 3.02411L3.02399 3.6602C2.75441 3.92978 2.68701 4.34248 2.85815 4.68324L3.42987 5.82744C3.61313 6.19319 3.62524 6.61952 3.46773 6.99662C3.46622 7.00041 3.46471 7.0042 3.46319 7.00798C3.3072 7.38433 2.99748 7.67587 2.61053 7.80536L1.39742 8.20898C1.03546 8.33014 0.791626 8.66938 0.791626 9.05028L0.791626 9.94989C0.791626 10.3315 1.03546 10.67 1.39742 10.7904L2.61053 11.1956C2.99748 11.3235 3.3072 11.6151 3.46319 11.9914C3.46471 11.9952 3.46622 11.9998 3.46773 12.0035C3.62524 12.3806 3.61313 12.8062 3.42987 13.1727L2.85815 14.3169C2.68701 14.6577 2.75441 15.0704 3.02399 15.3392L3.66008 15.9753C3.92965 16.2449 4.3416 16.3123 4.68312 16.1419L5.82731 15.5702C6.19306 15.3869 6.61864 15.3748 6.9965 15.5323C7.00029 15.5338 7.00408 15.5353 7.00786 15.5368C7.38497 15.6928 7.67575 16.0026 7.80448 16.3888L8.20885 17.6019C8.33001 17.9638 8.6685 18.2084 9.05015 18.2084L9.94976 18.2084C10.3314 18.2084 10.6699 17.9638 10.7903 17.6019L11.1947 16.3888C11.3234 16.0026 11.6149 15.6928 11.9921 15.5368C11.9951 15.5353 11.9996 15.5338 12.0034 15.5323C12.3805 15.3748 12.8069 15.3869 13.1726 15.5702L14.316 16.1419C14.6576 16.3123 15.0695 16.2449 15.3398 15.9753L15.9759 15.3392C16.2455 15.0704 16.3121 14.6577 16.1418 14.3169L15.57 13.1727C15.3868 12.8062 15.3747 12.3806 15.5322 12.0035C15.5337 11.9998 15.5352 11.9952 15.5367 11.9914C15.6927 11.6151 16.0024 11.3235 16.3886 11.1956L17.6025 10.7904C17.9637 10.67 18.2083 10.3315 18.2083 9.94989L18.2083 9.05028Z" fill-rule="evenodd" stroke="rgb(132,137,143)" stroke-width="1" />
	<path id="Stroke 3" d="M9.67421 13.0141C7.82883 13.0141 6.33337 11.5187 6.33337 9.67408C6.33337 7.82871 7.82883 6.33325 9.67421 6.33325C11.5188 6.33325 13.0142 7.82871 13.0142 9.67408C13.0142 11.5187 11.5188 13.0141 9.67421 13.0141Z" fill-rule="evenodd" stroke="rgb(132,137,143)" stroke-width="1" />
</svg>
